# xmcd
#
# Track frame offsets: 
#        150
#        10901
#        30062
#        48646
#        63634
#        78719
#        88177
#        104718
#        115597
#        129295
#        137069
#        150716
#        164483
#        176952
#        195288
#        203580
#        221277
#        238745
#        248879
#        273110
#        284216
#
# Disc length: 3976 seconds
#
# Revision: 0
# Processed by: cddbd v1.5.2PL0 Copyright (c) Steve Scherf et al.
# Submitted via: ExactAudioCopy v0.99pb1
#
DISCID=2d0f8615
DTITLE=Various Artist - Raamattuopiston kuorot
DYEAR=1900
DGENRE=Gospel
TTITLE0=Helmiportin kautta
TTITLE1=Oi Herra anna tultasi
TTITLE2=Miksi viivyt sä poluil maailman
TTITLE3=Pitenee illan varjot
TTITLE4=Rakkautta Jumalan
TTITLE5=Maranata
TTITLE6=Hän mulle antaa
TTITLE7=Tuli palaa
TTITLE8=Ikuinen
TTITLE9=Sullani ylistän Jeesustani
TTITLE10=Isäni
TTITLE11=Jumalan Henki
TTITLE12=Siksi nouse
TTITLE13=Jumala on lähellä nyt
TTITLE14=Pidä minusta kiinni
TTITLE15=Saanhan tulla takaisin
TTITLE16=Laulu Suomelle
TTITLE17=Avaa ovesi
TTITLE18=Oh happy day
TTITLE19=Olen luonasi
TTITLE20=Kautta kärsimysten voittoon
EXTD=
EXTT0=
EXTT1=
EXTT2=
EXTT3=
EXTT4=
EXTT5=
EXTT6=
EXTT7=
EXTT8=
EXTT9=
EXTT10=
EXTT11=
EXTT12=
EXTT13=
EXTT14=
EXTT15=
EXTT16=
EXTT17=
EXTT18=
EXTT19=
EXTT20=
PLAYORDER=
